<svg version="1.1" xmlns="http://www.w3.org/2000/svg" xmlns:xlink="http://www.w3.org/1999/xlink" width="260" height="340" viewBox="0,0,260,340"><defs><radialGradient cx="240.55" cy="158.55" r="43.7875" fx="240.55" fy="158.55" gradientUnits="userSpaceOnUse" id="color-1"><stop offset="0" stop-color="#000070" stop-opacity="0.49804"/><stop offset="1" stop-color="#000070" stop-opacity="0"/></radialGradient></defs><g transform="translate(-110,-10)"><g data-paper-data="{&quot;isPaintingLayer&quot;:true}" fill-rule="nonzero" stroke-linejoin="miter" stroke-dasharray="" stroke-dashoffset="0" style="mix-blend-mode: normal"><path d="M370,10v340h-260v-340z" fill-opacity="0" fill="#666666" stroke="none" stroke-width="1" stroke-linecap="butt" stroke-miterlimit="10"/><g><g stroke="none" stroke-width="1" stroke-linecap="butt" stroke-miterlimit="10"><g><path d="M261.7,209.5c1.0638,14.75872 -0.0362,25.19206 -3.3,31.3v0c-1.34623,2.6375 -3.82955,4.67083 -7.45,6.1v0c-3.11667,1.30169 -6.63333,1.9517 -10.55,1.95c-3.9095,0.00039 -7.4095,-0.63295 -10.5,-1.9h-0.05c-3.5836,-1.47682 -6.00026,-3.54349 -7.25,-6.2v0c-2.89128,-5.88815 -3.87461,-16.22149 -2.95,-31v-0.05c0.4724,-7.23867 1.20573,-13.90534 2.2,-20l0.25,-1.45h36.8l0.25,1.4c1.16159,6.04414 2.01159,12.6608 2.55,19.85M225.1,191.75c-0.87565,5.58021 -1.52565,11.64687 -1.95,18.2v0c-0.87383,13.95846 -0.00716,23.72513 2.6,29.3v-0.05c0.98334,1.91002 2.8,3.41002 5.45,4.5v0c2.70937,1.09948 5.77604,1.64948 9.2,1.65c3.4164,-0.00182 6.48307,-0.56849 9.2,-1.7h0.05c2.71302,-1.0711 4.59636,-2.5711 5.65,-4.5v0.05c2.9362,-5.75886 3.90286,-15.57552 2.9,-29.45c-0.48607,-6.48047 -1.2194,-12.48047 -2.2,-18z" fill="#000000"/><path d="M255.3,239.2v-0.05c-1.05364,1.9289 -2.93698,3.4289 -5.65,4.5h-0.05c-2.71693,1.13151 -5.78359,1.69817 -9.2,1.7c-3.42396,-0.00052 -6.49063,-0.55052 -9.2,-1.65v0c-2.65,-1.08998 -4.46666,-2.58998 -5.45,-4.5v0.05c-2.60716,-5.57487 -3.47383,-15.34154 -2.6,-29.3v0c0.42435,-6.55312 1.07435,-12.61979 1.95,-18.2h30.9c0.9806,5.51953 1.71393,11.51953 2.2,18c1.00286,13.87448 0.0362,23.69114 -2.9,29.45z" fill="#532050"/></g></g><g stroke="none" stroke-width="1" stroke-linecap="butt" stroke-miterlimit="10"><g><path d="M261.9,228.95c-0.33854,5.47747 -1.32187,9.82748 -2.95,13.05l2.05,49.65l1.05,0.55c1.49622,0.87422 2.74622,1.84089 3.75,2.9c3.59584,3.65846 3.89583,7.45846 0.9,11.4c-2.8612,3.98906 -7.29453,4.48906 -13.3,1.5c-1.65703,-0.83815 -3.35703,-1.92149 -5.1,-3.25l-0.05,-0.05h-0.05l-2.45,-2.15l-3.75,-51.5h-3.05l-2.05,51.55l-3.1,2.3v0c-2.11198,1.47852 -4.12865,2.64518 -6.05,3.5v0c-6.95911,3.05091 -11.64245,2.00091 -14.05,-3.15c-2.08893,-4.03958 -1.12226,-7.78958 2.9,-11.25v0c1.13555,-0.99922 2.46888,-1.89922 4,-2.7v0l1.05,-0.5l0.45,-48.8c-1.26588,-3.17955 -2.14922,-7.76289 -2.65,-13.75l-0.2,-2l2.05,0.45c12.89245,2.9806 25.82578,3.19727 38.8,0.65l1.9,-0.35l-0.1,1.95M258.75,230.65c-12.07695,2.11888 -24.11029,1.91888 -36.1,-0.6c0.49961,4.74909 1.28294,8.43242 2.35,11.05l0.1,0.3l-0.2,18.6l-0.05,10l-0.1,8.15c0.32162,0.4112 0.55495,0.9612 0.7,1.65c0.7,-1.16667 1.25,-2.3 1.65,-3.4c0.2,-0.46666 0.41666,-0.78333 0.65,-0.95c0.43333,-0.33333 0.93333,-0.31667 1.5,0.05c0.33334,0.26666 0.65,0.68333 0.95,1.25c0.46667,0.9 0.86667,2.05 1.2,3.45c0.16666,0.76666 0.41666,1.95 0.75,3.55c0.83334,-1.6 1.53333,-2.68333 2.1,-3.25c0.2039,-0.15859 0.38724,-0.27526 0.55,-0.35l0.35,-9.05l0.4,-10.45l0.5,-12.6h8.75l0.8,11.35c0.04817,0.3918 0.08151,0.77513 0.1,1.15l0.05,0.3c0.00287,0.07734 0.00287,0.14401 0,0.2c0.00664,0.09466 0.00664,0.178 0,0.25c0.03112,0.30508 0.04779,0.58841 0.05,0.85l0.05,0.7c0.02539,0.1125 0.04206,0.22916 0.05,0.35c0.00768,0.09166 0.00768,0.175 0,0.25l0.05,0.7c0.02409,0.15834 0.04076,0.30834 0.05,0.45c0.09401,1.21458 0.17735,2.43125 0.25,3.65l0.05,0.3c0.00534,0.16667 0.00534,0.33333 0,0.5c0.0763,0.78958 0.14297,1.57291 0.2,2.35l0.65,9.45h0.05l-0.05,-0.3c1.26953,-0.28724 2.16953,-0.33724 2.7,-0.15c0.86667,0.33333 1.5,1.2 1.9,2.6c0.4,-0.63333 0.66667,-1.86667 0.8,-3.7c0.13333,-2.1 0.55,-3.7 1.25,-4.8c0.53333,-0.73334 1.08333,-1.05 1.65,-0.95c0.4,0.1 0.73334,0.41666 1,0.95c0.53334,1 0.83334,2.55 0.9,4.65c0.04349,-0.0168 0.07682,-0.03346 0.1,-0.05c-0.0987,-2.82526 -0.21536,-5.65859 -0.35,-8.5c0.01067,-0.15573 0.01067,-0.32239 0,-0.5l-0.05,-0.5c-0.0043,-0.76159 -0.02096,-1.52826 -0.05,-2.3c-0.03359,-0.79154 -0.06693,-1.59154 -0.1,-2.4c-0.00729,-0.15834 -0.02396,-0.325 -0.05,-0.5l-0.05,-1.4v0l-0.1,-3.2h-0.05v-1.15c-0.01875,-0.38347 -0.03541,-0.7668 -0.05,-1.15c-0.2276,-5.3763 -0.46094,-10.75964 -0.7,-16.15l0.2,-0.35c1.35573,-2.60808 2.23906,-6.05808 2.65,-10.35M250.9,278.8c0.06667,0.33333 -0.03334,0.58333 -0.3,0.75c-0.23334,0.23334 -0.5,0.26666 -0.8,0.1c-0.43333,-0.13333 -0.58334,-0.41666 -0.45,-0.85c0.06667,-0.43333 0.31667,-0.65 0.75,-0.65c0.4,0 0.66667,0.21667 0.8,0.65z" fill="#000000"/><path d="M224.85,270c2.59674,0.45977 5.44675,0.7931 8.55,1c0.52657,0.03607 1.10989,0.0694 1.75,0.1l-0.35,9.05c-0.16276,0.07474 -0.3461,0.19141 -0.55,0.35c-0.56667,0.56667 -1.26666,1.65 -2.1,3.25c-0.33334,-1.6 -0.58334,-2.78334 -0.75,-3.55c-0.33334,-1.4 -0.73334,-2.55 -1.2,-3.45c-0.3,-0.56667 -0.61666,-0.98334 -0.95,-1.25c-0.56667,-0.36667 -1.06667,-0.38333 -1.5,-0.05c-0.23334,0.16667 -0.45,0.48334 -0.65,0.95c-0.4,1.1 -0.95,2.23334 -1.65,3.4c-0.14505,-0.6888 -0.37838,-1.2388 -0.7,-1.65l0.1,-8.15M255.45,273.55c-0.56667,-0.1 -1.11666,0.21666 -1.65,0.95c-0.7,1.1 -1.11667,2.7 -1.25,4.8c-0.13333,1.83333 -0.4,3.06667 -0.8,3.7c-0.4,-1.4 -1.03333,-2.26667 -1.9,-2.6c-0.53047,-0.18724 -1.43047,-0.13724 -2.7,0.15l0.05,0.3h-0.05l-0.65,-9.45c3.24544,0.01927 5.74544,-0.08073 7.5,-0.3c0.9582,-0.11055 1.99154,-0.27722 3.1,-0.5c0.13464,2.84141 0.2513,5.67474 0.35,8.5c-0.02317,0.01653 -0.05651,0.0332 -0.1,0.05c-0.06667,-2.1 -0.36667,-3.65 -0.9,-4.65c-0.26666,-0.53334 -0.6,-0.85 -1,-0.95M249.35,278.8c-0.13333,0.43333 0.01667,0.71666 0.45,0.85c0.3,0.16667 0.56666,0.13334 0.8,-0.1c0.26666,-0.16667 0.36667,-0.41667 0.3,-0.75c-0.13333,-0.43333 -0.4,-0.65 -0.8,-0.65c-0.43333,0 -0.68333,0.21667 -0.75,0.65M255.9,241.35c0.23907,5.39037 0.4724,10.7737 0.7,16.15c0.01459,0.3832 0.03125,0.76653 0.05,1.15v1.15c-3.76549,0.36133 -7.41549,0.61133 -10.95,0.75c-0.01849,-0.37487 -0.05183,-0.75821 -0.1,-1.15l-0.8,-11.35h-8.75l-0.5,12.6c-2.20989,-0.02305 -4.3599,-0.10638 -6.45,-0.25c-1.48945,-0.0974 -2.88945,-0.23073 -4.2,-0.4l0.2,-18.6l-0.1,-0.3c-1.06706,-2.61758 -1.85039,-6.30091 -2.35,-11.05c11.98971,2.51888 24.02304,2.71888 36.1,0.6c-0.41093,4.29192 -1.29427,7.74192 -2.65,10.35z" fill="#71a5c2"/><path d="M229.1,260.4c2.0901,0.14362 4.24011,0.22695 6.45,0.25l-0.4,10.45c-0.64011,-0.0306 -1.22343,-0.06393 -1.75,-0.1c-3.10325,-0.2069 -5.95326,-0.54023 -8.55,-1l0.05,-10c1.31054,0.16927 2.71054,0.3026 4.2,0.4M257,267.3c0.02904,0.77175 0.0457,1.53841 0.05,2.3l0.05,0.5c0.01067,0.17761 0.01067,0.34427 0,0.5c-1.10846,0.22278 -2.1418,0.38945 -3.1,0.5c-1.75456,0.21927 -4.25456,0.31927 -7.5,0.3c-0.05703,-0.77708 -0.1237,-1.56041 -0.2,-2.35c0.00534,-0.16667 0.00534,-0.33333 0,-0.5l-0.05,-0.3c-0.07265,-1.21875 -0.15599,-2.43541 -0.25,-3.65c-0.00924,-0.14166 -0.02591,-0.29167 -0.05,-0.45l-0.05,-0.7c0.00768,-0.075 0.00768,-0.15834 0,-0.25c-0.00795,-0.12083 -0.02461,-0.2375 -0.05,-0.35l-0.05,-0.7c-0.00222,-0.26159 -0.01888,-0.54492 -0.05,-0.85c0.00664,-0.072 0.00664,-0.15534 0,-0.25c0.00287,-0.05599 0.00287,-0.12266 0,-0.2l-0.05,-0.3c3.5345,-0.13867 7.18451,-0.38867 10.95,-0.75h0.05l0.1,3.2v0l0.05,1.4c0.02604,0.175 0.04271,0.34166 0.05,0.5c0.03307,0.80847 0.06641,1.60847 0.1,2.4z" fill="#3b647d"/></g></g><g><g fill="#793d76" stroke="none" stroke-width="1" stroke-linecap="butt" stroke-miterlimit="10"><path d="M221.4,186.05c3.06667,0.23334 4.43333,8.7 4.1,25.4c-0.16666,8.36667 -0.63334,16.7 -1.4,25l4.1,3.15c2.53333,2.43333 3.38334,4.58334 2.55,6.45c-0.83334,1.86667 -2.11666,2.36667 -3.85,1.5l-2.5,-1.8l0.35,5.35c-0.56667,3.53333 -2.86667,5.16666 -6.9,4.9c-6.13333,-0.3 -8.85,-4.13333 -8.15,-11.5c0.26666,-2.26666 0.83334,-4.75 1.7,-7.45l1.25,-3.45c0.7,-8 1.6,-15.98333 2.7,-23.95c2.13333,-15.96667 4.15,-23.83334 6.05,-23.6M267.35,233.6l1.25,3.45c0.86667,2.7 1.43333,5.18333 1.7,7.45c0.7,7.36667 -2.01667,11.2 -8.15,11.5c-4.03334,0.26666 -6.33333,-1.36667 -6.9,-4.9l0.35,-5.35l-2.5,1.8c-1.73334,0.86667 -3.01666,0.36667 -3.85,-1.5c-0.83334,-1.86667 0.01667,-4.01667 2.55,-6.45l4.1,-3.15c-0.76666,-8.3 -1.23334,-16.63333 -1.4,-25c-0.33334,-16.7 1.03334,-25.16666 4.1,-25.4c1.9,-0.23334 3.91666,7.63333 6.05,23.6c1.1,7.96667 2,15.95 2.7,23.95z"/></g><path d="M254.5,211.45c0.16666,8.36667 0.63334,16.7 1.4,25l-4.1,3.15c-2.53333,2.43333 -3.38334,4.58334 -2.55,6.45c0.83334,1.86667 2.11666,2.36667 3.85,1.5l2.5,-1.8l-0.35,5.35c0.56667,3.53333 2.86666,5.16666 6.9,4.9c6.13333,-0.3 8.85,-4.13333 8.15,-11.5c-0.26666,-2.26666 -0.83333,-4.75 -1.7,-7.45l-1.25,-3.45c-0.7,-8 -1.6,-15.98333 -2.7,-23.95c-2.13333,-15.96667 -4.15,-23.83334 -6.05,-23.6c-3.06667,0.23334 -4.43334,8.7 -4.1,25.4zM225.5,211.45c-0.16666,8.36667 -0.63334,16.7 -1.4,25l4.1,3.15c2.53333,2.43333 3.38334,4.58334 2.55,6.45c-0.83334,1.86667 -2.11666,2.36667 -3.85,1.5l-2.5,-1.8l0.35,5.35c-0.56667,3.53333 -2.86667,5.16666 -6.9,4.9c-6.13333,-0.3 -8.85,-4.13333 -8.15,-11.5c0.26666,-2.26666 0.83334,-4.75 1.7,-7.45l1.25,-3.45c0.7,-8 1.6,-15.98333 2.7,-23.95c2.13333,-15.96667 4.15,-23.83334 6.05,-23.6c3.06667,0.23334 4.43333,8.7 4.1,25.4z" fill="none" stroke="#000000" stroke-width="3" stroke-linecap="round" stroke-miterlimit="3"/></g><g stroke="none" stroke-width="1" stroke-linecap="butt" stroke-miterlimit="10"><g><path d="M264.3,193.95c-7.04336,6.60846 -14.7267,11.40847 -23.05,14.4l-0.5,0.2l-0.45,-0.2c-10.42864,-3.36015 -18.87865,-7.97682 -25.35,-13.85l-0.35,-0.3l-0.1,-0.45c-1.15755,-4.87513 -1.55755,-8.55847 -1.2,-11.05l0.15,-1.3l51.85,-0.4l0.25,1.15c0.78034,3.46458 0.49701,7.18125 -0.85,11.15l-0.1,0.35l-0.3,0.3M216.15,184.4c-0.02265,2.06146 0.36068,4.79479 1.15,8.2c6.04909,5.36628 13.84909,9.61628 23.4,12.75c7.66953,-2.8289 14.76953,-7.2789 21.3,-13.35c0.88802,-2.81901 1.15469,-5.48567 0.8,-8z" fill="#000000"/><path d="M240.7,205.35c-9.55091,-3.13372 -17.35091,-7.38372 -23.4,-12.75c-0.78932,-3.40521 -1.17265,-6.13854 -1.15,-8.2l46.65,-0.4c0.35469,2.51433 0.08802,5.18099 -0.8,8c-6.53047,6.0711 -13.63047,10.5211 -21.3,13.35z" fill="#71a5c2"/></g></g></g><g stroke="none" stroke-width="1" stroke-linecap="butt" stroke-miterlimit="10"><g><g><path d="M292.65,70.55l-24.4,28.4l-52.85,0.05l-28.6,-30.1l5.7,-9.9l93.85,1.2l6.3,10.35M195.4,64.05l-2.4,4.1l23.8,28.2l50.35,0.15l19.35,-26.45l-3,-4.9z" fill="#000000"/><path d="M267.15,96.5l-50.35,-0.15l-23.8,-28.2l2.4,-4.1l88.1,1.1l3,4.9z" fill="#532050"/></g></g><g><g><path d="M292.4,196.7l-104.8,1.75l-0.05,-105.3l104.9,-0.6l-0.05,104.15M193.1,98.3l-0.1,94.55l94.05,-0.65l-0.05,-94.1z" fill="#000000"/><path d="M287.05,192.2l-94.05,0.65l0.1,-94.55l93.9,-0.2l0.05,94.1M283.35,102.95l-86,-0.15l0.4,85.05h85.35l0.25,-84.9M279.35,109.8l-0.25,71.15l-7.05,-7c-0.37748,-0.37031 -0.84414,-0.55364 -1.4,-0.55c-0.55599,-0.00365 -1.03932,0.17969 -1.45,0.55c-0.37032,0.41067 -0.55365,0.89401 -0.55,1.45c-0.00365,0.55586 0.17969,1.02253 0.55,1.4l7.05,7.05h-71.65l9.3,-9.3c0.40351,-0.37748 0.60351,-0.84414 0.6,-1.4c0.00351,-0.55599 -0.19648,-1.03933 -0.6,-1.45c-0.37748,-0.37031 -0.84414,-0.55364 -1.4,-0.55c-0.55599,-0.00365 -1.03932,0.17969 -1.45,0.55l-9.35,9.3l-0.35,-71.45l7.4,7.3c0.38971,0.40417 0.85638,0.60417 1.4,0.6c0.55573,-0.00495 1.0224,-0.20495 1.4,-0.6c0.40443,-0.38841 0.60442,-0.85508 0.6,-1.4c-0.00625,-0.5556 -0.20625,-1.03893 -0.6,-1.45l-7.3,-7.2l72.25,0.15l-8,7.9c-0.37032,0.41067 -0.55365,0.89401 -0.55,1.45c-0.00365,0.55586 0.17969,1.02253 0.55,1.4c0.41068,0.40351 0.89401,0.60351 1.45,0.6c0.55586,0.00351 1.02253,-0.19648 1.4,-0.6z" fill="#793d76"/><path d="M283.1,187.85h-85.35l-0.4,-85.05l86,0.15l-0.25,84.9M268.5,117.7c-0.37032,-0.37748 -0.55365,-0.84414 -0.55,-1.4c-0.00365,-0.55599 0.17969,-1.03933 0.55,-1.45l8,-7.9l-72.25,-0.15l7.3,7.2c0.39375,0.41107 0.59375,0.8944 0.6,1.45c0.00442,0.54492 -0.19557,1.01159 -0.6,1.4c-0.3776,0.39505 -0.84427,0.59505 -1.4,0.6c-0.54362,0.00417 -1.01029,-0.19584 -1.4,-0.6l-7.4,-7.3l0.35,71.45l9.35,-9.3c0.41067,-0.37031 0.89401,-0.55364 1.45,-0.55c0.55586,-0.00365 1.02253,0.17969 1.4,0.55c0.40351,0.41067 0.60351,0.89401 0.6,1.45c0.00351,0.55586 -0.19648,1.02253 -0.6,1.4l-9.3,9.3h71.65l-7.05,-7.05c-0.37032,-0.37748 -0.55365,-0.84414 -0.55,-1.4c-0.00365,-0.55599 0.17969,-1.03933 0.55,-1.45c0.41068,-0.37031 0.89401,-0.55364 1.45,-0.55c0.55586,-0.00365 1.02253,0.17969 1.4,0.55l7.05,7l0.25,-71.15l-8,7.9c-0.37748,0.40351 -0.84414,0.60351 -1.4,0.6c-0.55599,0.00351 -1.03932,-0.19648 -1.45,-0.6z" fill="#b074af"/></g></g><g fill="url(#color-1)"><g><path d="M280.6,134.65c2.3,6.03333 1.66666,12 -1.9,17.9c-1.03334,1.76666 -2.35,3.5 -3.95,5.2c-1.33333,1.3 -1.98334,1.98334 -1.95,2.05c-0.8,0.56667 -2.16667,1.05 -4.1,1.45c-2,0.4 -7,-0.23334 -15,-1.9c-8.03333,-1.7 -16.65,-1.71666 -25.85,-0.05c-9.2,1.66666 -15.15,2.23333 -17.85,1.7l-2.75,-1.3c-2.1,-1.2 -3.8,-2.71666 -5.1,-4.55c-4.23334,-5.9 -3.93333,-13.76666 0.9,-23.6c2.43333,-5 6.05,-8.8 10.85,-11.4c3.6,-1.93333 8.11666,-3.28334 13.55,-4.05c4.13333,-0.53333 13.6,-0.36666 28.4,0.5c4.33334,0.26667 8.86666,1.93333 13.6,5c5.5,3.56667 9.21667,7.91667 11.15,13.05z"/></g></g><g><g><path d="M249.8,56.85c3.76666,3.16667 4.93333,7.31666 3.5,12.45l-0.25,1.05h-0.9c0.33334,3.7 0.21667,5.88334 -0.35,6.55c-0.43333,0.9 -4.46667,1.28333 -12.1,1.15c-7.76666,-0.1 -11.78333,-0.65 -12.05,-1.65c-0.43333,-0.8 -0.4,-3.16667 0.1,-7.1l-1.3,-0.05l-0.05,-1.2c-0.26666,-4.86666 0.68333,-8.48333 2.85,-10.85l0.4,-0.45l19.75,-0.25l0.4,0.35M242.25,59.35h-1.35l-4.05,0.05l-5.9,0.05c-1.26666,1.73333 -1.88333,4.13334 -1.85,7.2l7.3,0.3l4.45,0.2l1.6,0.05l8.5,0.35c0.66666,-3.33334 -0.18333,-6.11666 -2.55,-8.35l-6.15,0.15M244.85,70l-10.15,-0.4c0,0.06667 0,0.13334 0,0.2c-0.2,0.66666 -0.2,1.18333 0,1.55c0.33334,0.26667 2,0.41667 5,0.45h0.05c2.96667,0.06667 4.61666,-0.03333 4.95,-0.3v0.05c0.16666,-0.36666 0.21667,-0.81667 0.15,-1.35c0,-0.06667 0,-0.13334 0,-0.2M250.15,70.25l-3.25,-0.15c0.06667,1.03333 -0.1,1.86666 -0.5,2.5c-0.4,0.86666 -2.63334,1.26667 -6.7,1.2c-4.06667,-0.03333 -6.3,-0.48333 -6.7,-1.35c-0.5,-0.66666 -0.6,-1.65 -0.3,-2.95l-2.95,-0.1c0,0.03333 0,0.06667 0,0.1c-0.43333,3.33334 -0.53334,5.35 -0.3,6.05c0.3,0.23333 3.73334,0.4 10.3,0.5c6.53333,0.13334 10,0.05 10.4,-0.25c0.26666,-0.56667 0.26666,-2.36666 0,-5.4c0,-0.06667 0,-0.11667 0,-0.15M267.75,95.9c0.34974,-0.07877 0.74974,-0.14545 1.2,-0.2c1.7,-0.23333 4.28334,-0.41666 7.75,-0.55c3.66667,-0.13334 6.38334,0.01666 8.15,0.45c2.23334,0.53333 3.9,1.53333 5,3c0.76666,1 1.23333,2.4 1.4,4.2l0.15,4.5c0.06667,1.56667 -0.08333,2.63334 -0.45,3.2c-0.4,0.6 -1,0.93333 -1.8,1c-0.66914,0.05573 -1.21914,-0.12761 -1.65,-0.55c-0.23347,-0.00573 -0.48347,-0.0224 -0.75,-0.05c-3.5,-0.46667 -7.15,-0.73334 -10.95,-0.8c-2.9,-0.06667 -5.28334,0.16667 -7.15,0.7c-0.1,0.03333 -1.1,0.38334 -3,1.05c-1.2,0.43333 -2.21666,0.68333 -3.05,0.75c-1.73334,0.13334 -3.91667,-0.41666 -6.55,-1.65c-3.26666,-1.5 -5.43333,-2.36667 -6.5,-2.6c-2.23334,-0.46667 -5.1,-0.23333 -8.6,0.7c-2.70235,0.71446 -5.30234,1.58112 -7.8,2.6c-0.06667,0.15847 -0.1,0.25847 -0.1,0.3c0,0.2 0.11666,0.45 0.35,0.75l2,2.75c0.49466,0.59779 0.86133,1.28112 1.1,2.05c0.3,1 0.36666,1.98333 0.2,2.95c-0.16666,0.96667 -0.58334,1.85 -1.25,2.65c-0.7,0.76667 -1.51666,1.3 -2.45,1.6c-1.06667,0.33334 -2.23334,0.33334 -3.5,0c-1.6,-0.36666 -2.78334,-1.06667 -3.55,-2.1c-0.66666,-0.86666 -1.03333,-2 -1.1,-3.4c-0.03333,-0.93333 0.13333,-2.15 0.5,-3.65c0.26666,-1.13334 0.41667,-1.93333 0.45,-2.4c0.05951,-0.80378 -0.0405,-1.50378 -0.3,-2.1c-0.84987,0.62448 -1.53321,0.99115 -2.05,1.1c-1.68789,0.36823 -3.45455,0.40156 -5.3,0.1c-1.75026,0.56562 -3.15026,0.94896 -4.2,1.15c-2.73334,0.56667 -5.16666,0.65 -7.3,0.25c-3.23334,-0.56667 -5.9,-2.08334 -8,-4.55c-1.16666,2.4 -2.43333,3.78334 -3.8,4.15c-1.16666,0.33334 -2.36666,0.13334 -3.6,-0.6c-1.43333,-0.8 -2.25,-1.88334 -2.45,-3.25c-0.06667,-0.73333 0.1,-1.4 0.5,-2c0.2664,-0.4099 0.5664,-0.7099 0.9,-0.9c0.03932,-0.61771 0.12266,-1.41771 0.25,-2.4c0.1,-0.7 0.25,-1.76666 0.45,-3.2c0.26666,-1.2 0.75,-2.08334 1.45,-2.65c0.83334,-0.66666 2.36666,-0.96667 4.6,-0.9c3.06667,0.13334 6.8,0.11666 11.2,-0.05c4.96667,-0.23333 8.68334,-0.4 11.15,-0.5c3.4,-0.13334 11.06667,-0.18333 23,-0.15c9.5,0 17.16667,-0.25 23,-0.75c1.04661,-0.04649 1.86328,-0.04649 2.45,0M264.9,117.55c0,1.16666 -0.48334,2.01667 -1.45,2.55c-0.6,0.33334 -1.26666,0.38334 -2,0.15c-0.73334,-0.23333 -1.3,-0.65 -1.7,-1.25c-0.56667,-0.83334 -0.75,-1.66666 -0.55,-2.5c0.23334,-0.93333 0.78334,-1.56667 1.65,-1.9c0.8,-0.26667 1.63333,-0.15 2.5,0.35c0.96666,0.63334 1.48333,1.5 1.55,2.6z" fill="#000000"/><path d="M250.15,70.4c0.26666,3.03333 0.26666,4.83333 0,5.4c-0.4,0.3 -3.86667,0.38334 -10.4,0.25c-6.56666,-0.1 -10,-0.26667 -10.3,-0.5c-0.23334,-0.7 -0.13333,-2.71666 0.3,-6.05c0,-0.03333 0,-0.06667 0,-0.1l2.95,0.1c-0.3,1.3 -0.2,2.28334 0.3,2.95c0.4,0.86666 2.63333,1.31667 6.7,1.35c4.06667,0.06667 6.3,-0.33334 6.7,-1.2c0.4,-0.63334 0.56667,-1.46667 0.5,-2.5l3.25,0.15c0,0.03333 0,0.08334 0,0.15M240.85,67.15l-4.45,-0.2l0.45,-7.55l4.05,-0.05l-0.05,7.8M250.95,67.55l-8.5,-0.35l-0.2,-7.85l6.15,-0.15c2.36667,2.23333 3.21666,5.01666 2.55,8.35z" fill="#d1d1d1"/><path d="M236.4,66.95l-7.3,-0.3c-0.03333,-3.06667 0.58334,-5.46667 1.85,-7.2l5.9,-0.05l-0.45,7.55M240.85,67.15l0.05,-7.8h1.35l0.2,7.85z" fill="#a0a0a0"/></g></g><g fill="#000000"><g><path d="M232.55,87.35c0.63333,5.76667 -0.7,10.3 -4,13.6c-2.93333,2.9 -7.61667,5.01666 -14.05,6.35c-5.63333,1.2 -10.65,0.66667 -15.05,-1.6c-3.93333,-2.1 -6.46667,-5.03333 -7.6,-8.8c-1.2,-4.06667 -0.68333,-7.66667 1.55,-10.8c2.6,-3.76667 7.5,-6.35 14.7,-7.75c8.53333,-1.66666 14.38334,-2.06666 17.55,-1.2c4,1.13334 6.3,4.53333 6.9,10.2M287.35,86.55c2.2,3.1 2.75,6.68334 1.65,10.75c-1.1,3.8 -3.6,6.76667 -7.5,8.9c-4.36667,2.33334 -9.38333,2.95 -15.05,1.85c-6.43333,-1.23333 -11.13333,-3.28333 -14.1,-6.15c-3.36667,-3.26667 -4.76666,-7.8 -4.2,-13.6c0.53333,-5.66666 2.8,-9.08334 6.8,-10.25c3.1,-0.9 8.95,-0.58333 17.55,0.95c7.16667,1.3 12.11667,3.81667 14.85,7.55z"/></g></g><g><g><path d="M262.15,170.05c-1.23334,2.26666 -2.9,4.23333 -5,5.9c-4.9,3.73334 -10.61666,5.65 -17.15,5.75c-7.2,0.1 -13.13334,-1.73334 -17.8,-5.5c-2.13333,-1.66666 -3.8,-3.63333 -5,-5.9c-1.16666,-2.2 -1.73333,-4.33334 -1.7,-6.4c3.03333,1.7 6.85,3.18333 11.45,4.45c4.83334,1.26666 9.23334,1.91667 13.2,1.95c3.76666,0.03333 8.13333,-0.66667 13.1,-2.1c4.33333,-1.26666 7.9,-2.7 10.7,-4.3c-0.1,2.03333 -0.7,4.08334 -1.8,6.15M258.8,171.95c1.26666,-1.43333 2.11667,-2.9 2.55,-4.4c-13.80873,5.42617 -28.10873,5.47617 -42.9,0.15c0.3,1.5 1.01667,2.96667 2.15,4.4l5.35,-1.4l4.45,4.85l4.35,-2.5l5.2,3.95l4.9,-3.95l4.65,2.2l4.95,-4.9l4.35,1.55v0.05M254.9,172.75l-5,5l-4.8,-2.25l-5.1,4.1l-5.4,-4.05l-4.55,2.6l-4.7,-5.1l-3.1,0.8c0.4,0.4 0.83334,0.78333 1.3,1.15c4.3,3.46667 9.76666,5.15 16.4,5.05c6.1,-0.1 11.38334,-1.86667 15.85,-5.3c0.46666,-0.4 0.91666,-0.76666 1.35,-1.1z" fill="#000000"/><path d="M255.8,174.75c-4.46667,3.43333 -9.75,5.2 -15.85,5.3c-6.63333,0.1 -12.1,-1.58334 -16.4,-5.05c-0.46667,-0.36667 -0.9,-0.75 -1.3,-1.15l3.1,-0.8l4.7,5.1l4.55,-2.6l5.4,4.05l5.1,-4.1l4.8,2.25l5,-5l2.25,0.9c-0.43333,0.33334 -0.88333,0.7 -1.35,1.1M254.45,170.35l-4.95,4.9l-4.65,-2.2l-4.9,3.95l-5.2,-3.95l-4.35,2.5l-4.45,-4.85l-5.35,1.4c-1.13333,-1.43333 -1.85,-2.9 -2.15,-4.4c14.79128,5.32617 29.09128,5.27617 42.9,-0.15c-0.43333,1.5 -1.28334,2.96666 -2.55,4.4v-0.05z" fill="#ffffff"/></g></g><g><g><path d="M235.05,142.9c0.23334,6.63333 -1.71667,11.68334 -5.85,15.15c-3.6,3.13333 -8.4,4.7 -14.4,4.7c-5.56666,0 -10.06666,-1.71667 -13.5,-5.15c-3.26666,-3.3 -5,-7.68333 -5.2,-13.15c-0.16666,-5.7 1.38334,-10.58333 4.65,-14.65c3.53333,-4.56667 8.18334,-6.83334 13.95,-6.8c5.33334,0.06667 10,1.98333 14,5.75c4.06667,3.86667 6.18334,8.58334 6.35,14.15M198.75,144.45c0.16666,4.7 1.65,8.46667 4.45,11.3c2.93333,2.86667 6.78334,4.3 11.55,4.3c5.33334,0 9.56667,-1.35 12.7,-4.05c3.46667,-3 5.1,-7.36666 4.9,-13.1c0,-0.16666 0,-0.35 0,-0.55c-0.3,-4.6 -2.13333,-8.5 -5.5,-11.7h0.05c-3.4,-3.26667 -7.43333,-4.91667 -12.1,-4.95c-4.93333,-0.03333 -8.91667,1.9 -11.95,5.8c-2.46667,3.13333 -3.83334,6.75 -4.1,10.85c0,0.7 0,1.4 0,2.1M251.4,128.75c3.86667,-3.76667 8.46667,-5.68333 13.8,-5.75c5.76666,-0.03333 10.5,2.23334 14.2,6.8c3.4,4.06667 5.1,8.95 5.1,14.65c0,5.46667 -1.58333,9.85 -4.75,13.15c-3.33333,3.43333 -7.78334,5.15 -13.35,5.15c-6,0 -10.85,-1.56667 -14.55,-4.7c-4.23334,-3.46667 -6.35,-8.51667 -6.35,-15.15c0,-5.56666 1.96667,-10.28333 5.9,-14.15M248.2,142.9c0,5.73334 1.78334,10.1 5.35,13.1c3.23334,2.7 7.51666,4.05 12.85,4.05c4.76666,0 8.56667,-1.43333 11.4,-4.3c2.7,-2.83334 4.05,-6.6 4.05,-11.3c0,-0.7 -0.01666,-1.4 -0.05,-2.1c-0.4,-4.1 -1.88333,-7.71667 -4.45,-10.85c-3.16667,-3.9 -7.21667,-5.83333 -12.15,-5.8c-4.66667,0.03333 -8.65,1.68333 -11.95,4.95h0.05c-3.26666,3.2 -4.96667,7.1 -5.1,11.7c0,0.2 0,0.38334 0,0.55z" fill="#000000"/><path d="M232.35,142.35h-33.6c0.26666,-4.1 1.63333,-7.71667 4.1,-10.85c3.03333,-3.9 7.01667,-5.83333 11.95,-5.8c4.66666,0.03333 8.7,1.68333 12.1,4.95h-0.05c3.36667,3.2 5.2,7.1 5.5,11.7M253.25,130.65c3.3,-3.26667 7.28333,-4.91667 11.95,-4.95c4.93333,-0.03333 8.98334,1.9 12.15,5.8c2.56667,3.13333 4.05,6.75 4.45,10.85h-33.6c0.13333,-4.6 1.83334,-8.5 5.1,-11.7z" fill="#bc1717"/><path d="M198.75,142.35h33.6c0,0.2 0,0.38334 0,0.55c0.2,5.73334 -1.43333,10.1 -4.9,13.1c-3.13333,2.7 -7.36666,4.05 -12.7,4.05c-4.76666,0 -8.61667,-1.43333 -11.55,-4.3c-2.8,-2.83334 -4.28333,-6.6 -4.45,-11.3c0,-0.7 0,-1.4 0,-2.1M281.8,142.35c0.03334,0.7 0.05,1.4 0.05,2.1c0,4.7 -1.35,8.46667 -4.05,11.3c-2.83333,2.86667 -6.63334,4.3 -11.4,4.3c-5.33333,0 -9.61666,-1.35 -12.85,-4.05c-3.56667,-3 -5.35,-7.36666 -5.35,-13.1c0,-0.16666 0,-0.35 0,-0.55z" fill="#f35f5f"/></g></g><g><g><path d="M255.85,134.3c2.33334,-2.3 5.13334,-3.46667 8.4,-3.5c3.5,0 6.36667,1.36666 8.6,4.1c1.8,2.23334 2.83333,4.81667 3.1,7.75c0.03334,0.43333 0.05,0.9 0.05,1.4c0,2.96667 -1.16667,5.68333 -3.5,8.15c-1.93333,1.93333 -4.63334,2.9 -8.1,2.9c-1.86667,0 -3.46666,-0.23333 -4.8,-0.7c-1.3,-0.46667 -2.53334,-1.2 -3.7,-2.2c-2.4,-2.06667 -3.6,-5.15 -3.6,-9.25c0,-0.1 0,-0.2 0,-0.3c0.1,-3.26666 1.28333,-6.05 3.55,-8.35M261.8,142c-0.23334,0.16666 -0.35,0.41666 -0.35,0.75c0.06667,0.53333 0.33334,0.8 0.8,0.8c0.53334,0 0.83333,-0.23334 0.9,-0.7c0.03334,-0.23334 0,-0.45 -0.1,-0.65c-0.13333,-0.16666 -0.31667,-0.28333 -0.55,-0.35c-0.26666,-0.06667 -0.5,-0.01666 -0.7,0.15M207.45,134.9c2.13333,-2.73334 4.95,-4.1 8.45,-4.1c3.26666,0.03333 6.11666,1.2 8.55,3.5c2.33334,2.3 3.6,5.08334 3.8,8.35c0,0.1 0,0.2 0,0.3c0.13333,4.1 -0.96667,7.18334 -3.3,9.25c-1.13333,1 -2.33334,1.73334 -3.6,2.2c-1.33334,0.46667 -2.93333,0.7 -4.8,0.7c-3.46667,0 -6.2,-0.96667 -8.2,-2.9c-2.4,-2.46667 -3.65,-5.18333 -3.75,-8.15c0,-0.5 0,-0.96667 0,-1.4c0.16666,-2.93333 1.11666,-5.51666 2.85,-7.75M217.4,142.85c0.1,0.46667 0.41666,0.7 0.95,0.7c0.46667,0 0.71667,-0.26667 0.75,-0.8c0,-0.33334 -0.11666,-0.58334 -0.35,-0.75c-0.2,-0.16666 -0.43333,-0.21667 -0.7,-0.15c-0.23334,0.06667 -0.41667,0.18333 -0.55,0.35c-0.1,0.2 -0.13333,0.41666 -0.1,0.65z" fill="#000000"/><path d="M262.5,141.85c0.23334,0.06667 0.41667,0.18333 0.55,0.35c0.1,0.2 0.13333,0.41666 0.1,0.65c-0.06667,0.46667 -0.36666,0.7 -0.9,0.7c-0.46666,0 -0.73334,-0.26667 -0.8,-0.8c0,-0.33334 0.11667,-0.58334 0.35,-0.75c0.2,-0.16666 0.43333,-0.21667 0.7,-0.15M218.75,142c0.23334,0.16666 0.35,0.41666 0.35,0.75c-0.03333,0.53333 -0.28333,0.8 -0.75,0.8c-0.53333,0 -0.85,-0.23334 -0.95,-0.7c-0.03333,-0.23334 0,-0.45 0.1,-0.65c0.13333,-0.16666 0.31667,-0.28333 0.55,-0.35c0.26666,-0.06667 0.5,-0.01666 0.7,0.15z" fill="#fe0000"/></g></g></g></g></g></svg>